<svg xmlns="http://www.w3.org/2000/svg" width="138" height="138" viewBox="0 0 138 138"><g transform="translate(-665 -2187.998)"><circle cx="69" cy="69" r="69" transform="translate(665 2187.998)" fill="#00af42"/><g transform="translate(-2.397 2.837)"><path d="M85.375,152.458a8.136,8.136,0,0,0-2.516-1.559,74.941,74.941,0,0,0-8.363-2.527,140.632,140.632,0,0,0-23.144-2.518,3.67,3.67,0,0,1-2.263-1.014c3.578-2.067,7.065-4.092,10.572-6.082a1.108,1.108,0,0,1,.854.086c1.056.5,2.065,1.1,3.142,1.551a1.78,1.78,0,0,0,1.367-.059c3.234-1.8,6.441-3.655,9.641-5.518a1.133,1.133,0,0,0,.422-1.65,1.169,1.169,0,0,0-1.643-.465,6.576,6.576,0,0,0-.707.4c-2.607,1.505-5.209,3.021-7.83,4.5a1.389,1.389,0,0,1-1.056.2c-1-.5-1.951-1.115-3.091-1.789.5-.316.747-.479,1-.626q4.5-2.6,8.995-5.2c.235-.136.471-.269.7-.411.791-.487,1.03-1.152.651-1.8a1.26,1.26,0,0,0-1.886-.333q-4.817,2.766-9.623,5.552c-.279.161-.563.314-1.035.577-.085-1.08-.188-2-.219-2.918a1.651,1.651,0,0,1,.992-1.632c2.691-1.479,5.334-3.045,7.991-4.584.906-.525,1.175-1.23.752-1.912-.4-.647-1.093-.732-1.979-.222-2.532,1.456-4.983,3.08-7.613,4.328-2.182,1.035-2.759,2.642-2.619,4.791a4.136,4.136,0,0,0,.06.719c.147.6-.093.912-.619,1.212-4.315,2.462-8.606,4.965-12.925,7.419a1.343,1.343,0,0,1-1.11.009c-1.642-.886-3.232-1.869-4.87-2.762a1.03,1.03,0,0,1-.629-1.341,7.374,7.374,0,0,0-2.793-7.868,25.683,25.683,0,0,0-9.893-5.063,17.442,17.442,0,0,0-4.818-.516,7.944,7.944,0,0,0-7.666,9.048,10.861,10.861,0,0,0,3.14,6.082,26.273,26.273,0,0,0,9.921,6.592,10.268,10.268,0,0,0,2.72.6,7.514,7.514,0,0,0,5.649-2.191c.208-.177.626-.36.811-.267.907.451,1.767.994,2.734,1.557a4.732,4.732,0,0,1-2.856,1.085c-4.594.333-9.192.657-13.771,1.156a58.857,58.857,0,0,0-13.764,2.868,19.075,19.075,0,0,0-4.483,2.267c-2.294,1.619-2.244,3.884-.05,5.62a8.8,8.8,0,0,0,1.671,1.065,28.789,28.789,0,0,0,3.163,1.317,80.689,80.689,0,0,0,15.836,3.1c.478.059,5.042.549,5.076.466a180.29,180.29,0,0,0,36.783-.446c1.965-.291,3.946-.479,5.908-.785a50.577,50.577,0,0,0,11.718-2.9,15.177,15.177,0,0,0,3.509-2c1.956-1.529,1.95-3.6.052-5.212m-46.211-6.152c.13-.075.262-.148.39-.228,1.075-.677,1.094-1.7.011-2.341-1.788-1.058-3.6-2.081-5.391-3.127a1.447,1.447,0,0,0-1.943.29c-2.994,2.9-4.642,3.15-8.389,1.261a23.1,23.1,0,0,1-7.207-5.2,12.847,12.847,0,0,1-2.129-3.214,5.468,5.468,0,0,1,4.788-7.813,15.743,15.743,0,0,1,4.8.594,24.6,24.6,0,0,1,7.85,3.986,5.442,5.442,0,0,1,2.315,6.537c-.1.316-.179.638-.247.962a1.241,1.241,0,0,0,.635,1.454c2.5,1.444,4.985,2.93,7.531,4.3a2.048,2.048,0,0,0,1.65-.183c4.4-2.486,8.775-5.031,13.156-7.559.309-.179.621-.354.933-.532l.6,1.042c-.394.236-.793.483-1.2.718q-5.512,3.187-11.027,6.37c-1.347.778-1.359,1.786-.01,2.567q6.409,3.712,12.827,7.407c.284.164.562.341.918.557l-.6,1.039-7.1-4.094c-2.79-1.61-5.592-3.2-8.362-4.846a1.963,1.963,0,0,0-2.251-.009c-4.884,2.86-9.794,5.675-14.7,8.5-.338.2-.68.385-1.1.623l-.622-1.02c.308-.187.559-.345.816-.494q6.529-3.773,13.061-7.543m44.1,10a16.491,16.491,0,0,1-3.016,1.411,65.075,65.075,0,0,1-13.574,2.906,197.925,197.925,0,0,1-37.7.874,98.42,98.42,0,0,1-20.148-3.057c-1.53-.426-3-1.071-4.487-1.64a4.4,4.4,0,0,1-.933-.548c-1.2-.85-1.277-1.658.05-2.3a37.078,37.078,0,0,1,6.278-2.447,100.588,100.588,0,0,1,19.808-2.879,5.366,5.366,0,0,1,.569.051c-2.054,1.187-3.913,2.263-5.773,3.337-2.427,1.4-2.427,1.4-1.029,3.828.27.47.535.943.807,1.411.68,1.169,1.183,1.313,2.341.645,4.773-2.751,9.591-5.43,14.289-8.3a3.415,3.415,0,0,1,4.162,0c4.565,2.8,9.253,5.407,13.894,8.085,1.211.7,1.733.559,2.419-.628.482-.834.971-1.664,1.439-2.507.532-.959.372-1.531-.59-2.092-1.977-1.152-3.961-2.291-5.941-3.438-.172-.1-.331-.222-.5-.334l.062-.247c3.354.322,6.715.589,10.061.979a67.629,67.629,0,0,1,14.126,2.9,18.548,18.548,0,0,1,3.358,1.53c1.412.827,1.414,1.622.025,2.46" transform="translate(693 2121.846)" fill="#fff"/><path d="M193.036,19.347c.171-8.494,3.394-14.379,9.195-18.948a1.332,1.332,0,0,1,1.951.051c3.768,3.838,7.054,8.02,8.691,13.236,2.238,7.134.563,13.39-4.636,18.665a33.88,33.88,0,0,1-4.7,3.635,1.85,1.85,0,0,1-2.624-.184,20.614,20.614,0,0,1-6.888-10.985,52.893,52.893,0,0,1-.993-5.47M205.474,31.6c3.265-2.945,5.471-6.442,5.84-10.922a16.718,16.718,0,0,0-1.519-8.174,33.986,33.986,0,0,0-6.714-9.619c-5,4.227-7.713,9.448-7.514,15.979a20.339,20.339,0,0,0,6.352,14.559,6.029,6.029,0,0,0,.342-.678c.2-.6.422-1.194.563-1.808a30.143,30.143,0,0,0-.117-12.289c-.4-2.152-1.054-4.257-1.62-6.375-.22-.824.005-1.48.679-1.729a1.256,1.256,0,0,1,1.628.875c.14.332.263.673.37,1.018a43.438,43.438,0,0,1,2.043,12.071c.044,2.333-.209,4.672-.333,7.093" transform="translate(534.857 2221.946)" fill="#fff"/></g></g></svg>