<svg xmlns="http://www.w3.org/2000/svg" width="138" height="138" viewBox="0 0 138 138"><g transform="translate(-288 -2187.998)"><circle cx="69" cy="69" r="69" transform="translate(288 2187.998)" fill="#00af42"/><path d="M66.853,39.007a4.229,4.229,0,0,1,3.94-1.018,3.533,3.533,0,0,1,2.237,1.793,3.6,3.6,0,0,1-.017,3.705,4.91,4.91,0,0,1-3.154,2.1l.03.1.45-.067c.169-.026.337-.06.506-.078A3.68,3.68,0,0,1,74.6,47.215a3.586,3.586,0,0,1-.038,4.145,3.68,3.68,0,0,1-3.785,1.612c-.268-.034-.534-.083-.8-.124a.226.226,0,0,0-.182.046c.419.161.843.308,1.255.486a3.672,3.672,0,0,1,2.452,3.3,3.764,3.764,0,0,1-6.186,3.106c-2.013-1.606-3.99-3.258-5.983-4.89-.087-.071-.18-.135-.292-.219-.068.055-.135.1-.192.158a8.317,8.317,0,0,1-7.434,2.346c-1.813-.281-3.621-.6-5.434-.886a1.765,1.765,0,0,0-.672.031,29.44,29.44,0,0,1-7.021.821c-4.043-.014-8.087.063-12.128-.017-10.65-.21-18.737-4.979-24.3-13.994A26.726,26.726,0,0,1,0,29.322c-.017-.919.257-1.191,1.191-1.19h.735A5.5,5.5,0,0,1,3.346,24.7,6.165,6.165,0,0,1,7.407,14.689a6.171,6.171,0,0,1,6.45-6.074c.041-.325.07-.619.117-.911a6.1,6.1,0,0,1,9.2-4.224.462.462,0,0,0,.627-.028,5.967,5.967,0,0,1,5.656-.937.46.46,0,0,0,.6-.186,6.086,6.086,0,0,1,9.8.3c.194.275.331.3.644.2a5.962,5.962,0,0,1,6.486,1.457.442.442,0,0,0,.583.111A6.081,6.081,0,0,1,56.1,8.887a.512.512,0,0,0,.439.471,6.061,6.061,0,0,1,4.579,5.618c.015.257.075.359.353.4A6.108,6.108,0,0,1,65.486,25.2a.615.615,0,0,0-.058.471c.208.733.463,1.453.66,2.189.058.215.124.279.33.273.412-.012.825-.009,1.238,0,.74.008,1.043.311,1.036,1.045a28.02,28.02,0,0,1-1.46,8.721c-.125.371-.253.74-.38,1.111m-.706-3.376H46.389c-.785,0-1.187-.279-1.2-.837s.411-.87,1.212-.87q9.843,0,19.686.009c.34,0,.483-.094.516-.435.1-1.062.232-2.121.346-3.181a4.189,4.189,0,0,0,0-.445H1.747c0,.177-.006.318,0,.458A26.317,26.317,0,0,0,6.69,44.435a.8.8,0,0,0,.741.369q5.872-.015,11.744-.006a3.1,3.1,0,0,1,.426.012.831.831,0,0,1,.722.779.815.815,0,0,1-.651.876,2.649,2.649,0,0,1-.551.039q-5.061,0-10.121,0H8.387c.158.193.232.294.318.384A25.74,25.74,0,0,0,27.03,55.392c4.606.172,9.223.044,13.835.05h1.144c0-.036,0-.071,0-.107-.109-.026-.216-.059-.326-.077l-11.71-1.914a20.037,20.037,0,0,1-2.1-.362,3.8,3.8,0,0,1-2.48-4.2A3.58,3.58,0,0,1,28.3,45.438c.942-.148,1.884-.289,2.825-.443q11.121-1.821,22.241-3.646a8.366,8.366,0,0,1,7.2,2.078c.156.137.3.287.467.445.832-.681,1.64-1.332,2.434-2a1.558,1.558,0,0,0,.421-.52c.557-1.23,1.115-2.461,1.625-3.71.255-.624.41-1.289.633-2.01M8.023,28.115a13.467,13.467,0,0,1,4.22-8.977,13.224,13.224,0,0,1,9.14-3.746,13.087,13.087,0,0,1,8.365,2.72,13.536,13.536,0,0,1,5.439,9.982h1.306a6.344,6.344,0,0,1,.358-3.434,6.227,6.227,0,0,1,2.124-2.675A5.178,5.178,0,0,1,43.492,14.6a5.162,5.162,0,1,1,10.24-.012c.122.019.244.042.368.057a5.1,5.1,0,0,1,4.241,7.046c-.107.277,0,.371.177.517a6,6,0,0,1,2.271,5.349c-.013.179-.033.357-.05.534h3.65a3.515,3.515,0,0,0-.79-2.032c-.455-.581-.428-.917.1-1.443a4.394,4.394,0,0,0-3.284-7.568c-.8.028-1.152-.367-1.045-1.159A4.4,4.4,0,0,0,55.457,10.9c-.706-.075-.95-.347-.973-1.042a4.632,4.632,0,0,0-.05-.595A4.4,4.4,0,0,0,47.695,6.27c-.682.437-1.032.372-1.506-.281a4.406,4.406,0,0,0-5.861-1.2c-.721.414-1.122.275-1.486-.48a4.4,4.4,0,0,0-7.766-.465c-.548.865-.737.932-1.646.506a4.386,4.386,0,0,0-5.107.914c-.551.562-.877.575-1.5.06a4.4,4.4,0,0,0-7.18,4.011c.12.85-.325,1.269-1.17,1.1a4.4,4.4,0,0,0-5.3,4.849c.077.733-.253,1.07-.985,1.114a5.908,5.908,0,0,0-1.589.257A4.38,4.38,0,0,0,5.062,24c.552.541.513.994-.053,1.514a5.7,5.7,0,0,0-.9,1.067,2.8,2.8,0,0,0-.445,1.535ZM44.514,53.994c.009-.188.019-.314.02-.44,0-.968-.01-1.936.006-2.9a.829.829,0,0,1,1.139-.819.869.869,0,0,1,.561.914c0,1.011.021,2.022-.009,3.032-.012.392.1.536.495.6,1.829.276,3.651.6,5.479.877a11.8,11.8,0,0,0,3.213.339,6.333,6.333,0,0,0,4.7-2.539A6.356,6.356,0,0,0,55.4,42.939a14.7,14.7,0,0,0-3.3.343c-.316.033-.392.164-.389.463.015,1.181.009,2.363,0,3.544,0,.618-.338,1.017-.846,1.023s-.855-.388-.858-1c0-1.068,0-2.135,0-3.2,0-.147-.017-.294-.026-.43a.766.766,0,0,0-.14-.014q-5.9.965-11.8,1.925c-.294.047-.366.171-.363.445.011,1.138.009,2.277,0,3.416,0,.623-.344,1.013-.856,1.009s-.843-.388-.846-1.014c0-1.039,0-2.078-.005-3.117,0-.121-.016-.241-.025-.373-.1.007-.152.006-.207.015q-3.6.583-7.2,1.168a1.98,1.98,0,0,0-1.475,2.127A2,2,0,0,0,28.534,51.4l.042.006,12.47,2.029,3.468.561m4.947-25.886c.186.009.325.023.465.023,2.861,0,5.723-.009,8.583.011.4,0,.5-.149.559-.493A4.4,4.4,0,0,0,56.791,23.1a.874.874,0,0,1-.357-1.438,3.35,3.35,0,0,0-.009-3.852,3.3,3.3,0,0,0-3.547-1.4.888.888,0,0,1-1.081-1.3,3.409,3.409,0,1,0-6.376,0A.9.9,0,0,1,44.3,16.4a3.354,3.354,0,0,0-3.779,1.893,3.3,3.3,0,0,0,.246,3.335c.431.679.329,1.1-.378,1.5-.1.056-.2.113-.293.175a4.272,4.272,0,0,0-1.8,4.8h9.461c0-.993-.011-1.959.007-2.924a.455.455,0,0,0-.352-.493q-1.84-.744-3.668-1.517a.857.857,0,1,1,.641-1.584c.213.079.42.174.631.261l2.743,1.132v-.527c0-1.523,0-3.046,0-4.569,0-.666.422-1.077.995-.987a.869.869,0,0,1,.711.965c0,1.537,0,3.074,0,4.612,0,.149.012.3.021.5.23-.092.4-.158.567-.227.933-.386,1.862-.785,2.8-1.156a.844.844,0,0,1,1.22.831.9.9,0,0,1-.64.775c-1.211.5-2.42,1-3.624,1.511-.135.058-.326.2-.329.315-.025,1.02-.015,2.042-.015,3.087m-19.773,0a8.106,8.106,0,0,0-8.442-7.269,8.017,8.017,0,0,0-7.695,7.269Zm3.732,0a11.843,11.843,0,0,0-23.627,0H11.77a9.8,9.8,0,0,1,3.212-6.418,9.84,9.84,0,0,1,12.567-.567,9.839,9.839,0,0,1,3.9,6.986ZM62.606,46.521c2.688-1.017,5.344-1.993,7.974-3.036a1.891,1.891,0,0,0,1.227-1.8,2.055,2.055,0,0,0-3.316-1.692c-.418.293-.8.643-1.193.967-1.662,1.36-3.328,2.717-4.982,4.088a.524.524,0,0,0-.182.427,9.552,9.552,0,0,0,.471,1.051m.007,5.494a7.534,7.534,0,0,1-.413.889c-.178.285-.095.435.141.627,2.032,1.649,4.053,3.311,6.082,4.964a2.1,2.1,0,0,0,1.555.464A2.065,2.065,0,0,0,71.8,57.19a2.09,2.09,0,0,0-1.25-2.171c-.562-.238-1.14-.44-1.712-.656l-6.22-2.349m.429-2.07a1.752,1.752,0,0,0,.224.071c2.624.432,5.246.874,7.873,1.287a2.066,2.066,0,1,0-.181-4.055c-2.343.385-4.686.776-7.029,1.157-.873.142-.875.133-.886.992,0,.17,0,.34,0,.549" transform="translate(319 2226.643)" fill="#fff"/></g></svg>