<svg xmlns="http://www.w3.org/2000/svg" width="138" height="138" viewBox="0 0 138 138"><g transform="translate(-1109 -2187.998)"><circle cx="69" cy="69" r="69" transform="translate(1109 2187.998)" fill="#00af42"/><g transform="translate(-2.571 4.616)"><path d="M318.534,306.292q-8.89,0-17.78,0c-1.576,0-3.153-.02-4.729-.02a5.368,5.368,0,0,1-4.751-2.68c-.486-.758-.935-1.54-1.382-2.322a.664.664,0,0,0-.71-.392,3.966,3.966,0,0,1-.675-.007,1.107,1.107,0,0,1-1.09-1.049,1.139,1.139,0,0,1,.924-1.207,2.723,2.723,0,0,1,.567-.044c1.126,0,2.253-.012,3.379,0,.37,0,.51-.12.536-.5a25.816,25.816,0,0,1,51.218-2.63c.151.868.234,1.75.3,2.629.028.381.15.511.528.506,1.213-.016,2.426-.012,3.639,0a1.124,1.124,0,0,1,1.176.83,1.045,1.045,0,0,1-1.016,1.441c-1.01-.113-1.422.412-1.861,1.167a15.613,15.613,0,0,1-1.913,2.759,4.853,4.853,0,0,1-3.692,1.523q-7.174,0-14.348-.012-4.159,0-8.318,0v.013m26.161-5.408h-.579q-5.85-.008-11.7-.014-12.038,0-24.076.01c-.208,0-.417.006-.624-.013a1.092,1.092,0,0,1-1.049-1.033,1.154,1.154,0,0,1,.9-1.23,2.93,2.93,0,0,1,.62-.036q14.349,0,28.7,0c1.543,0,3.085-.01,4.628.006.413,0,.569-.145.519-.55-.081-.653-.12-1.312-.226-1.96a23.517,23.517,0,0,0-46.675,1.85c-.038.5.112.671.622.663,1.473-.025,2.947-.02,4.42,0a1.157,1.157,0,0,1,1.2,1.177,1.131,1.131,0,0,1-1.24,1.111q-3.614.007-7.228.015c-.148,0-.3.017-.544.033.384.622.687,1.205,1.077,1.723a3.092,3.092,0,0,0,2.615,1.345c2.283-.023,4.567-.006,6.851-.006h27.712c3.4,0,6.8-.033,10.192.014,2.051.029,3.079-1.185,3.887-3.105" transform="translate(876.943 1976.526)" fill="#fff"/><path d="M26.363,0c1.612,0,3.224-.013,4.836,0a2.943,2.943,0,0,1,2.927,1.919,2.932,2.932,0,0,1-2.5,3.987c-.426.041-.579.158-.54.585.046.5-.136,1.139.114,1.457s.906.315,1.389.432a26.141,26.141,0,0,1,14.816,9.56,25.434,25.434,0,0,1,3.911,7.062,1.165,1.165,0,1,1-2.165.807A23.978,23.978,0,0,0,37.376,12.583a23.27,23.27,0,0,0-8.787-2.5,23.037,23.037,0,0,0-12.329,2.2c-7.547,3.7-12.17,9.7-13.571,18.013A23.359,23.359,0,0,0,6.877,48.179a24.087,24.087,0,0,0,16.673,9.88,41.74,41.74,0,0,0,5.081.074c.8-.011,1.386.352,1.452,1.07a1.133,1.133,0,0,1-1.168,1.24,25.814,25.814,0,0,1-16.17-3.729A25.428,25.428,0,0,1,1.316,42.165a25.706,25.706,0,0,1,3.9-23.733A25.684,25.684,0,0,1,20.762,8.294c.82-.188.822-.186.814-1.039,0-.381.12-.854-.061-1.115-.159-.23-.659-.228-1.01-.322a2.965,2.965,0,0,1-2.117-2.939A2.925,2.925,0,0,1,20.8.08,7.921,7.921,0,0,1,21.943,0c1.473-.008,2.947,0,4.42,0Zm-.035,3.612c1.612,0,3.224,0,4.836,0,.56,0,.823-.219.821-.645s-.27-.64-.829-.641q-4.784-.01-9.567-.006c-.548,0-.894.268-.9.66s.328.633.9.634q2.366,0,4.732,0m.023,2.318H25.21c-1.346,0-1.327,0-1.325,1.343,0,.444.178.508.559.491,1.018-.046,2.037-.086,3.055-.074,1.353.016,1.343.039,1.285-1.311-.014-.333-.13-.461-.463-.453-.656.015-1.313,0-1.97,0" transform="translate(1134.463 2221.946)" fill="#fff"/><path d="M51.6,146.125a21.1,21.1,0,0,1,14.355-20.219c7.543-2.45,14.447-1.048,20.554,3.989a20.044,20.044,0,0,1,5.928,8.409c.05.129.1.258.144.39a1.178,1.178,0,0,1-.681,1.614,1.2,1.2,0,0,1-1.506-.831,24.107,24.107,0,0,0-1.037-2.321A18.284,18.284,0,0,0,75.6,127.318a18.072,18.072,0,0,0-15.173,4.37A17.766,17.766,0,0,0,54.055,143.8c-.687,7.357,2.062,13.251,8.056,17.568a17.382,17.382,0,0,0,8.833,3.2c.551.047,1.1.073,1.658.1a1.163,1.163,0,0,1,1.271,1.148,1.15,1.15,0,0,1-1.3,1.167,21.151,21.151,0,0,1-20.842-18.8c-.1-.789-.1-1.59-.133-2.062" transform="translate(1088.228 2110.189)" fill="#fff"/><path d="M146.313,229.228a2.742,2.742,0,0,1,.109-.822c.265-.565-.01-.885-.393-1.241-2.577-2.392-5.139-4.8-7.712-7.2a1.363,1.363,0,0,1-.559-1.167,1.134,1.134,0,0,1,1.877-.759c.683.557,1.309,1.185,1.953,1.789q3.128,2.932,6.246,5.874a.664.664,0,0,0,.813.174,3.591,3.591,0,1,1-2.236,4.171,7.131,7.131,0,0,1-.1-.823m2.332.025a1.312,1.312,0,0,0,1.3,1.281,1.375,1.375,0,0,0,1.27-1.286,1.308,1.308,0,0,0-1.3-1.287,1.253,1.253,0,0,0-1.271,1.292" transform="translate(1011.041 2026.831)" fill="#fff"/><path d="M545.047,196.29a21.077,21.077,0,0,1,2.378.15,2.9,2.9,0,0,1,2.467,3.154c-.064,1.018-.19,2.033-.317,3.045a1.13,1.13,0,0,1-1.292,1,1.155,1.155,0,0,1-.99-1.3c.087-.913.2-1.823.278-2.737a.761.761,0,0,0-.836-.934q-1.688-.036-3.376,0c-.655.015-.911.312-.861.956.066.862.164,1.722.254,2.581a1.179,1.179,0,0,1-1,1.44,1.151,1.151,0,0,1-1.276-1.131c-.122-.926-.2-1.857-.3-2.786a3.048,3.048,0,0,1,3.105-3.384c.588-.026,1.178,0,1.766,0l0-.047" transform="translate(650.492 2046.072)" fill="#fff"/><path d="M242.387,156.885c0-.346-.016-.693,0-1.038a1.107,1.107,0,0,1,.972-1.053,1,1,0,0,1,1.2.743,14.157,14.157,0,0,1,0,2.773c-.046.484-.678.771-1.188.7a1.1,1.1,0,0,1-.987-1.036c-.019-.362,0-.727,0-1.09" transform="translate(917.292 2083.262)" fill="#fff"/><path d="M247.063,462.769c0,.346.011.692,0,1.037a1.137,1.137,0,0,1-2.255.155,14.651,14.651,0,0,1,0-2.328,1.135,1.135,0,0,1,2.253.151c.015.328,0,.657,0,.985" transform="translate(915.16 1809.174)" fill="#fff"/><path d="M83.552,320.593c-.346,0-.692.013-1.037,0a1.124,1.124,0,0,1-.177-2.222,15.541,15.541,0,0,1,2.48,0,1.051,1.051,0,0,1,.854,1.186,1.069,1.069,0,0,1-1.03,1.036c-.362.019-.726,0-1.089,0" transform="translate(1061.484 1936.734)" fill="#fff"/><path d="M413.152,331.276c-.005.362-.332.7-.841.908a17.668,17.668,0,0,0-10.527,12.136c-.037.151-.069.3-.109.455a1.174,1.174,0,0,1-1.379.955,1.141,1.141,0,0,1-.869-1.474,28.867,28.867,0,0,1,1.1-3.458,19.761,19.761,0,0,1,10.724-10.7c1.027-.446,1.893,0,1.9,1.174" transform="translate(776.626 1926.329)" fill="#fff"/></g></g></svg>