<svg xmlns="http://www.w3.org/2000/svg" width="138" height="138" viewBox="0 0 138 138"><g transform="translate(-1444 -2363.998)"><circle cx="69" cy="69" r="69" transform="translate(1444 2363.998)" fill="#00af42"/><g transform="translate(-0.409 -0.411)"><path d="M70.817,35.467A35.409,35.409,0,1,1,35.482,0,35.435,35.435,0,0,1,70.817,35.467m-2.169.546a33.252,33.252,0,1,0-34,32.63,33.186,33.186,0,0,0,34-32.63" transform="translate(1478 2397.999)" fill="#fff"/><path d="M167.9,278.307c1.661,0,3.2-.006,4.736.006a1.776,1.776,0,0,1,.763.14.923.923,0,0,1,.491,1.131,1.013,1.013,0,0,1-1.094.781c-1.724,0-3.45.038-5.172-.015a1.355,1.355,0,0,0-1.417.807c-1.624,2.9-3.311,5.767-4.97,8.648a3.738,3.738,0,0,0,3.33,5.812q10.072.019,20.143.011a3.866,3.866,0,0,0,3.347-1.649,1.045,1.045,0,1,1,1.663,1.221,5.57,5.57,0,0,1-4.657,2.465c-6.958.028-13.916.06-20.873-.006a5.77,5.77,0,0,1-4.834-8.735c1.552-2.732,3.14-5.444,4.712-8.165l3.406-5.9c.091-.158.175-.321.279-.47a1.043,1.043,0,0,1,1.425-.4,1.03,1.03,0,0,1,.342,1.48c-.415.743-.855,1.473-1.281,2.21-.1.171-.188.349-.339.63" transform="translate(1338.748 2157.495)" fill="#fff"/><path d="M156.214,155.4a4.1,4.1,0,0,1-.74.875.935.935,0,0,1-1.213-.232q-1.218-1.191-2.43-2.39l-38.539-37.971a3.54,3.54,0,0,1-.3-.306,1.015,1.015,0,0,1,.054-1.38.982.982,0,0,1,1.376-.042c.53.472,1.024.983,1.529,1.482q19.789,19.5,39.573,39a7.4,7.4,0,0,1,.686.961" transform="translate(1378.976 2298.151)" fill="#fff"/><path d="M235.156,116.9c1.369,0,2.705,0,4.042,0a3.7,3.7,0,0,1,.666.036.985.985,0,0,1,.847,1.027.96.96,0,0,1-.952.987c-.79.035-1.582.015-2.373.018h-.606c-.016.255-.041.467-.042.679,0,1.319,0,2.638,0,3.957,0,.768-.407,1.249-1.027,1.255s-1.028-.465-1.032-1.24c-.007-1.38-.011-2.76,0-4.139,0-.34-.077-.493-.449-.557a1.356,1.356,0,0,1-1.185-1.406q-.034-2.008,0-4.017a1.411,1.411,0,0,1,1.458-1.478q5.57-.028,11.14,0a1.408,1.408,0,0,1,1.441,1.5c.024,1.319.021,2.638,0,3.956a1.382,1.382,0,0,1-1.208,1.452c-.336.062-.428.189-.427.511.009,3.287,0,6.574.017,9.861a1.716,1.716,0,0,0,.26.786c1.154,2.026,2.329,4.041,3.482,6.068a1.819,1.819,0,0,1,.281.843.911.911,0,0,1-.747.919.974.974,0,0,1-1.153-.463c-.469-.783-.918-1.577-1.375-2.367-.832-1.44-1.682-2.87-2.48-4.328a2.777,2.777,0,0,1-.337-1.257c-.027-3.348-.008-6.7-.027-10.044a2.073,2.073,0,0,0-.27-.943,1.037,1.037,0,0,1,.785-1.594,9.152,9.152,0,0,1,1.107-.007V114.12h-9.841Z" transform="translate(1273.344 2299.629)" fill="#fff"/><path d="M225.768,371.217a3.327,3.327,0,1,1-3.3-3.337,3.32,3.32,0,0,1,3.3,3.337m-3.308-1.294a1.294,1.294,0,0,0-1.3,1.248,1.326,1.326,0,0,0,1.3,1.323,1.311,1.311,0,0,0,1.262-1.294,1.272,1.272,0,0,0-1.264-1.277" transform="translate(1285.564 2074.911)" fill="#fff"/><path d="M294.639,354.54a1.815,1.815,0,1,1-1.828-1.788,1.792,1.792,0,0,1,1.828,1.788" transform="translate(1222.422 2088.197)" fill="#fff"/></g></g></svg>